<svg xmlns="http://www.w3.org/2000/svg" width="36.038" height="40.873" viewBox="0 0 36.038 40.873">
  <g id="file_type_css_icon_130661" transform="translate(-3.656 -2)">
    <path id="Caminho_92" data-name="Caminho 92" d="M6.935,38.787,3.656,2H39.694L36.411,38.781,21.653,42.873Z" transform="translate(0)" fill="#1572b6"/>
    <path id="Caminho_93" data-name="Caminho 93" d="M16,38.8l11.926-3.306L30.732,4.061H16Z" transform="translate(5.675 0.948)" fill="#33a9dc"/>
    <path id="Caminho_94" data-name="Caminho 94" d="M16,16.067h5.97l.412-4.62H16V6.935H27.313l-.108,1.21L26.1,20.579H16Z" transform="translate(5.675 2.269)" fill="#fff"/>
    <path id="Caminho_95" data-name="Caminho 95" d="M19.136,22.777l-.02.006-5.024-1.358-.321-3.6H9.24l.632,7.084,9.242,2.566.022-.006Z" transform="translate(2.567 7.277)" fill="#ebebeb"/>
    <path id="Caminho_96" data-name="Caminho 96" d="M21.583,16.151l-.543,6.042L16.008,23.55v4.695l9.249-2.563.069-.762.784-8.769Z" transform="translate(5.679 6.506)" fill="#fff"/>
    <path id="Caminho_97" data-name="Caminho 97" d="M19.571,6.935v4.512H8.672l-.091-1.015L8.376,8.145l-.108-1.21Z" transform="translate(2.12 2.269)" fill="#ebebeb"/>
    <path id="Caminho_98" data-name="Caminho 98" d="M17.69,13.191V17.7H12.728l-.091-1.015-.2-2.287-.108-1.21Z" transform="translate(3.986 5.145)" fill="#ebebeb"/>
  </g>
</svg>
