<svg xmlns="http://www.w3.org/2000/svg" width="34.992" height="34.868" viewBox="0 0 34.992 34.868">
  <g id="layer1" transform="translate(0 -5.132)">
    <g id="g6360" transform="translate(0 5.132)">
      <g id="g296" transform="translate(6.208 5.812)">
        <path id="path298" d="M-.33-.054a.644.644,0,0,1,.77.5c0,.317-.674.3-1.507.3s-1.507.013-1.507-.3c0-.23.3-.581.866-.521.2.021.413-.33.641-.347.507-.038.517.4.737.367" transform="translate(2.575 0.423)" fill="#30bec7"/>
      </g>
      <g id="g300" transform="translate(24.043 12.186)">
        <path id="path302" d="M-.33-.054a.644.644,0,0,1,.77.5c0,.318-.674.3-1.507.3s-1.507.014-1.507-.3c0-.23.3-.581.866-.521.2.021.412-.33.641-.347.508-.038.518.4.737.367" transform="translate(2.574 0.423)" fill="#30bec7"/>
      </g>
      <g id="g304" transform="translate(4.211 9.505)">
        <path id="path306" d="M-.593-.1A1.157,1.157,0,0,1,.789.8c0,.571-1.212.546-2.706.546S-4.623,1.375-4.623.8c0-.413.537-1.043,1.554-.935.353.038.741-.594,1.152-.624.911-.069.929.726,1.324.658" transform="translate(4.623 0.76)" fill="#30bec7"/>
      </g>
      <g id="g308" transform="translate(24.619 5.831)">
        <path id="path310" d="M-.538-.089A1.05,1.05,0,0,1,.717.73c0,.518-1.1.5-2.457.5S-4.2,1.248-4.2.73c0-.375.488-.947,1.411-.849.321.034.673-.539,1.046-.567.828-.062.843.659,1.2.6" transform="translate(4.197 0.69)" fill="#30bec7"/>
      </g>
      <g id="g312" transform="translate(14.261)">
        <path id="path314" d="M-.476,0c-5.292,3.64-2.5,15.358-2.5,15.358h5S4.816,3.64-.476,0" transform="translate(3.712)" fill="#30bec7"/>
      </g>
      <g id="g316" transform="translate(11.271 14.617)">
        <path id="path318" d="M-.324,0S-4.363,2.486-1.5,9.1L.19,3.684Z" transform="translate(2.526)" fill="#f05727"/>
      </g>
      <g id="g320" transform="translate(21.014 14.617)">
        <path id="path322" d="M-.076,0S3.963,2.486,1.1,9.1L-.59,3.684Z" transform="translate(0.59)" fill="#f05727"/>
      </g>
      <g id="g324" transform="translate(15.488 6.237)">
        <path id="path326" d="M-.591-.284A1.97,1.97,0,0,1-2.6,1.646,1.97,1.97,0,0,1-4.607-.284,1.971,1.971,0,0,1-2.6-2.215,1.97,1.97,0,0,1-.591-.284" transform="translate(4.607 2.215)" fill="#fff"/>
      </g>
      <g id="g328" transform="translate(0 1.036)">
        <path id="path330" d="M.729.771C.54.335.278-.02-.16.066-.642.16-1.1,2.087-1.513,1.973c-.607-.167-1.069.247-1.375.861A1.79,1.79,0,0,0-4.6,1.538a1.8,1.8,0,0,0-1.789,1.8,1.82,1.82,0,0,0,.032.332,1.922,1.922,0,0,0-.461.233,1.5,1.5,0,0,0-2.4.826c-.895-1.848-2.212,0-2.212,0a4.748,4.748,0,0,1-.3-.381c-1.566-2.711.359-13.511.359-13.511h-2.879s1.936,10.857.346,13.532a4.176,4.176,0,0,1-.267.34l-.019.019c-.041-.057-1.329-1.816-2.21,0A1.5,1.5,0,0,0-18.8,3.9a1.586,1.586,0,0,0-.865-.295,1.849,1.849,0,0,0,.022-.27,1.8,1.8,0,0,0-1.789-1.8,1.782,1.782,0,0,0-1.529.87.735.735,0,0,0-.913-.332c-.464.206-.485-2.221-1.555-2.01-.236.046-.465.53-.686,1a16.028,16.028,0,0,1-3.7-10.229c0-9.067,7.63-16.444,17.008-16.444S4.194-18.231,4.194-9.164A16.01,16.01,0,0,1,.729.771M-3.33,5.044c.088-.056.176-.111.263-.167A17.43,17.43,0,0,0,.924,1.3,16.483,16.483,0,0,0,4.682-9.164c0-9.328-7.848-16.916-17.5-16.916s-17.5,7.589-17.5,16.916a16.5,16.5,0,0,0,3.958,10.7,17.427,17.427,0,0,0,3.791,3.339q.147.1.3.188A17.645,17.645,0,0,0-19.419,6.5a17.924,17.924,0,0,0,6.605,1.253A17.926,17.926,0,0,0-6.208,6.5,17.736,17.736,0,0,0-3.33,5.044" transform="translate(30.31 26.08)" fill="#30bec7"/>
      </g>
      <path id="path332" d="M26.264-26.3h-.451v-9.1h.451Z" transform="translate(-8.543 49.046)" fill="#f05727"/>
      <g id="g334" transform="translate(14.896 0.084)">
        <path id="path336" d="M-.383,0a6.988,6.988,0,0,0-2.6,3.916,6.7,6.7,0,0,0,2.6.488,6.7,6.7,0,0,0,2.6-.488A6.985,6.985,0,0,0-.383,0" transform="translate(2.983)" fill="#f05727"/>
      </g>
    </g>
  </g>
</svg>
