<svg xmlns="http://www.w3.org/2000/svg" width="41.449" height="40" viewBox="0 0 41.449 40">
  <path id="git_original_logo_icon_146509" d="M41.55,19.1,23.453,1.638a2.739,2.739,0,0,0-3.775,0L15.92,5.265l4.767,4.6a3.252,3.252,0,0,1,3.261.733,2.986,2.986,0,0,1,.753,3.167L29.3,18.2a3.253,3.253,0,0,1,3.281.727,2.988,2.988,0,0,1,0,4.334,3.258,3.258,0,0,1-4.493,0,2.988,2.988,0,0,1-.691-3.334l-4.284-4.135V26.674a3.189,3.189,0,0,1,.84.579,2.991,2.991,0,0,1,0,4.336,3.258,3.258,0,0,1-4.491,0,2.991,2.991,0,0,1,0-4.336,3.179,3.179,0,0,1,1.04-.669V15.6a3.156,3.156,0,0,1-1.04-.669,2.987,2.987,0,0,1-.684-3.351l-4.7-4.535L1.665,19.021a2.514,2.514,0,0,0,0,3.644l18.1,17.464a2.739,2.739,0,0,0,3.776,0L41.55,22.746a2.515,2.515,0,0,0,0-3.644Z" transform="translate(-0.883 -0.884)" fill="#f34f29"/>
</svg>
