<?xml version="1.0" encoding="utf-8"?>
<!-- Generator: Adobe Illustrator 23.0.1, SVG Export Plug-In . SVG Version: 6.00 Build 0)  -->
<svg version="1.1" id="Camada_1" xmlns="http://www.w3.org/2000/svg" xmlns:xlink="http://www.w3.org/1999/xlink" x="0px" y="0px"
	 viewBox="0 0 100.4 95.1" style="enable-background:new 0 0 100.4 95.1;" xml:space="preserve">
<style type="text/css">
	.st0{opacity:0.8;fill:#363D44;enable-background:new    ;}
	.st1{opacity:0.7;fill:#363D44;enable-background:new    ;}
	.st2{opacity:0.85;fill:#363D44;enable-background:new    ;}
	.st3{fill:#FFFFFF;}
</style>
<title>Ativo 2</title>
<g>
	<g id="ICON_SET">
		<path class="st0" d="M67.4,91.8c2.3,2.6,5.7,3.8,9.1,3.2c3.8-0.8,7-3.3,8.8-6.7c4.1-7.5,1.2-20.9-7.5-18.1
			C71,72.3,61.8,85.7,67.4,91.8z"/>
		<path class="st1" d="M53.7,0.9C32.4,10.6,37.1,21.4,31,26.6S0.9,38.3,0,46.7s23.4,16.9,31,26.4s-3.1,21,27.3,14.9
			c9.3-1.9,33.8,0.6,32.6-21.6S72-7.4,53.7,0.9z"/>
		<path class="st2" d="M5.8,20.7C9.5,5,34,6.4,45.5,12.5c18.4,9.9,28.7,1.4,40.8,3c15.5,2,23.7,47.7-5.1,62.7s-46.9,21.6-62.5,7.2
			c-8.4-7.8-6-24-6.1-34c0-4.3,0.5-9.1-0.7-13.3c-1.6-5.8-7.2-9-6.4-15.6C5.5,21.9,5.6,21.3,5.8,20.7z"/>
	</g>
	<g>
		<path class="st3" d="M74.7,45.5c0.2-1.1,0.3-2.3,0.3-3.7c0-5.9-2.8-7.9-3.4-8.9c0.8-4.4-0.1-6.5-0.6-7.2c-1.6-0.6-5.5,1.5-7.7,2.9
			c-3.5-1-10.9-0.9-13.7,0.3c-5.1-3.7-7.9-3.1-7.9-3.1s-1.8,3.2-0.5,7.8c-1.7,2.2-3,3.7-3,7.7c0,1,0.1,1.9,0.2,2.8
			c1.5,7.7,7.5,11,13.5,11.5c-0.9,0.7-2,2-2.1,3.5c-1.1,0.7-3.4,1-5.2,0.4c-2.5-0.8-3.4-5.7-7.1-5c-0.8,0.1-0.6,0.7,0.1,1.1
			c1.1,0.7,2.2,1.6,3,3.6c0.6,1.5,2,4.2,6.1,4.2c1.7,0,2.8-0.2,2.8-0.2s0,3.8,0,5.3c0,1.7-2.3,2.2-2.3,3c0,0.3,0.8,0.4,1.4,0.4
			c1.2,0,3.7-1,3.7-2.8c0-1.4,0-6.2,0-7c0-1.8,1-2.4,1-2.4s0.1,9.7-0.2,11c-0.4,1.5-1.2,1.3-1.2,2c0,1,3,0.2,4-2
			c0.8-1.7,0.4-11.2,0.4-11.2h0.8c0,0,0,4.3,0,6.3c0,2.1-0.2,4.7,1,5.9c0.8,0.8,3.3,2.2,3.3,0.9c0-0.8-1.7-1.4-1.7-3.4v-9.4
			c1,0,1.3,3.1,1.3,3.1l0.4,5.7c0,0-0.3,2.1,2.3,3c0.9,0.3,2.8,0.4,2.9-0.1s-2.3-1.3-2.3-2.9c0-1,0-1.6,0-5.8c0-4.3-0.6-5.9-2.6-7.1
			C67.6,54.9,73.6,52.3,74.7,45.5z"/>
	</g>
</g>
</svg>
