<svg id="google-svgrepo-com" xmlns="http://www.w3.org/2000/svg" width="36.203" height="35.32" viewBox="0 0 36.203 35.32">
  <path id="Caminho_126" data-name="Caminho 126" d="M283.156,211.48H268.317a1.186,1.186,0,0,0-1.186,1.186v4.74a1.186,1.186,0,0,0,1.186,1.186h8.356a11.155,11.155,0,0,1-4.8,5.627l3.563,6.168a17.835,17.835,0,0,0,9.094-15.6,12.022,12.022,0,0,0-.2-2.329A1.192,1.192,0,0,0,283.156,211.48Z" transform="translate(-248.326 -197.512)" fill="#167ee6"/>
  <path id="Caminho_127" data-name="Caminho 127" d="M50.155,339.387a11.069,11.069,0,0,1-9.576-5.54L34.411,337.4a18.175,18.175,0,0,0,24.839,6.666v-.008l-3.563-6.168A10.989,10.989,0,0,1,50.155,339.387Z" transform="translate(-31.966 -311.185)" fill="#12b347"/>
  <path id="Caminho_128" data-name="Caminho 128" d="M265.094,396.955v-.008l-3.563-6.168a10.989,10.989,0,0,1-5.531,1.5v7.117A18.158,18.158,0,0,0,265.094,396.955Z" transform="translate(-238.516 -364.072)" fill="#0f993e"/>
  <path id="Caminho_129" data-name="Caminho 129" d="M7.117,137.205a10.989,10.989,0,0,1,1.5-5.531l-6.168-3.555a18.106,18.106,0,0,0,0,18.172l6.168-3.555A10.989,10.989,0,0,1,7.117,137.205Z" transform="translate(0 -119.545)" fill="#ffd500"/>
  <path id="Caminho_130" data-name="Caminho 130" d="M50.155,7.117a11.021,11.021,0,0,1,7.029,2.524,1.182,1.182,0,0,0,1.59-.072l3.359-3.359a1.2,1.2,0,0,0-.068-1.748A18.149,18.149,0,0,0,34.411,9.1l6.168,3.555A11.069,11.069,0,0,1,50.155,7.117Z" transform="translate(-31.966 0)" fill="#ff4b26"/>
  <path id="Caminho_131" data-name="Caminho 131" d="M263.029,9.641a1.182,1.182,0,0,0,1.59-.072l3.359-3.359a1.2,1.2,0,0,0-.068-1.748A18.134,18.134,0,0,0,256,0V7.117A11.021,11.021,0,0,1,263.029,9.641Z" transform="translate(-238.611)" fill="#d93f21"/>
</svg>
