<svg xmlns="http://www.w3.org/2000/svg" width="36.041" height="40.873" viewBox="0 0 36.041 40.873">
  <g id="file_type_html_icon_130541" transform="translate(-3.655 -2)">
    <path id="Caminho_99" data-name="Caminho 99" d="M6.935,38.787,3.655,2H39.7L36.412,38.781,21.654,42.873Z" transform="translate(0)" fill="#e44f26"/>
    <path id="Caminho_100" data-name="Caminho 100" d="M16,38.8l11.926-3.306L30.732,4.061H16Z" transform="translate(5.676 0.948)" fill="#f1662a"/>
    <path id="Caminho_101" data-name="Caminho 101" d="M19.563,16.283h-5.97l-.412-4.62h6.382V7.151H8.25l.108,1.212L9.466,20.8h10.1Z" transform="translate(2.113 2.368)" fill="#ebebeb"/>
    <path id="Caminho_102" data-name="Caminho 102" d="M19.117,22.993,19.1,23l-5.024-1.356-.321-3.6H9.221l.632,7.083L19.1,27.693l.02-.006Z" transform="translate(2.559 7.376)" fill="#ebebeb"/>
    <path id="Caminho_103" data-name="Caminho 103" d="M15.989,13.407v4.512h5.556l-.523,5.852-5.033,1.358v4.695l9.25-2.565.067-.762,1.06-11.878.111-1.212H15.989Z" transform="translate(5.671 5.244)" fill="#fff"/>
    <path id="Caminho_104" data-name="Caminho 104" d="M15.989,7.151v4.512h10.9l.091-1.013.206-2.287.108-1.212Z" transform="translate(5.671 2.368)" fill="#fff"/>
  </g>
</svg>
