<svg xmlns="http://www.w3.org/2000/svg" xmlns:xlink="http://www.w3.org/1999/xlink" viewBox="0 0 101.74 95.4"><defs><style>.cls-1{opacity:0.8;fill:url(#Nueva_muestra_de_degradado_4);}.cls-2{opacity:0.7;fill:url(#Nueva_muestra_de_degradado_4-2);}.cls-3{opacity:0.85;fill:url(#Nueva_muestra_de_degradado_4-3);}.cls-4{fill:#fff;}</style><linearGradient id="Nueva_muestra_de_degradado_4" x1="11.93" y1="76.34" x2="22.61" y2="92.22" gradientTransform="matrix(-0.51, -0.86, 0.97, -0.58, -48.09, 146.13)" gradientUnits="userSpaceOnUse"><stop offset="0" stop-color="#f5ec53"/><stop offset="0.24" stop-color="#e48244"/><stop offset="0.55" stop-color="#d15767"/><stop offset="0.72" stop-color="#c84278"/><stop offset="1" stop-color="#192cfa"/></linearGradient><linearGradient id="Nueva_muestra_de_degradado_4-2" x1="0" y1="51.3" x2="101.74" y2="51.3" gradientTransform="matrix(1, 0, 0, 1, 0, 0)" xlink:href="#Nueva_muestra_de_degradado_4"/><linearGradient id="Nueva_muestra_de_degradado_4-3" x1="1.28" y1="42.88" x2="98.9" y2="42.88" gradientTransform="matrix(1, 0, 0, 1, 0, 0)" xlink:href="#Nueva_muestra_de_degradado_4"/></defs><title>Ativo 1</title><g id="Camada_2" data-name="Camada 2"><g id="ICON_SET" data-name="ICON SET"><path class="cls-1" d="M26.33,93.67a18.73,18.73,0,0,0,6.43.21,7.74,7.74,0,0,0,5.4-3.55c1.29-2.42.33-5.24-1.47-7s-4.29-2.78-6.6-4-4.59-2.68-5.56-5c-.53-1.27-.67-2.77-1.66-3.73-1.61-1.57-4.67-.89-6.75.55C2.1,80.93,16.68,92.11,26.33,93.67Z"/><path class="cls-2" d="M69,9C46.14,16.15,20.34,10.19,9.28,25.3s-17,29.2,10.21,37.2,24,40.81,45.28,31.13C111.64,72.33,114.92-5.46,69,9Z"/><path class="cls-3" d="M44.25,16.4C51.09,10.7,57.42,3.72,65.74,1.06A22.65,22.65,0,0,1,86.58,4.82a23.42,23.42,0,0,1,8.36,20.44c-.93,8-6.08,15.3-5.31,23.31.52,5.4,3.65,10,6.12,14.77S100.09,73.9,98,78.83c-3,7-12,8.1-18.88,6s-13.26-6.48-20.42-6.93c-10-.64-19.28,6.48-29.33,6.55a12.9,12.9,0,0,1-7.13-1.79A20,20,0,0,1,17.13,77C11.64,69.18,5.84,59.63,8.66,50.31c.87-2.89,2.57-5.67,2.29-8.69-.6-6.6-9.58-11.08-9.67-17.31-.07-5.13,5.21-7.26,9.21-6.12,6.4,1.84,9.35,7.31,16.91,6.59C33.57,24.19,39.51,20.45,44.25,16.4Z"/><path class="cls-4" d="M52.89,30c6.32,0,7.07,0,9.56.14a13.09,13.09,0,0,1,4.4.82,7.37,7.37,0,0,1,2.72,1.77,7.21,7.21,0,0,1,1.77,2.72,13,13,0,0,1,.81,4.39c.12,2.49.14,3.24.14,9.56s0,7.07-.14,9.56a13,13,0,0,1-.81,4.39,7.21,7.21,0,0,1-1.77,2.72,7.37,7.37,0,0,1-2.72,1.77,13.09,13.09,0,0,1-4.4.82c-2.49.11-3.24.14-9.56.14s-7.06,0-9.56-.14a13,13,0,0,1-4.39-.82,7.37,7.37,0,0,1-2.72-1.77,7.21,7.21,0,0,1-1.77-2.72A13,13,0,0,1,33.64,59c-.12-2.49-.14-3.24-.14-9.56s0-7.07.14-9.56a13,13,0,0,1,.81-4.39,7.21,7.21,0,0,1,1.77-2.72A7.37,7.37,0,0,1,38.94,31a13,13,0,0,1,4.39-.82c2.5-.11,3.25-.14,9.56-.14m0-4.26c-6.42,0-7.23,0-9.75.14A17.57,17.57,0,0,0,37.4,27a12.11,12.11,0,0,0-6.92,6.92,17.17,17.17,0,0,0-1.1,5.75c-.12,2.52-.14,3.32-.14,9.75s0,7.23.14,9.75a17.17,17.17,0,0,0,1.1,5.75,12.11,12.11,0,0,0,6.92,6.92,17.57,17.57,0,0,0,5.74,1.1c2.52.11,3.33.14,9.75.14s7.24,0,9.76-.14a17.57,17.57,0,0,0,5.74-1.1,12.11,12.11,0,0,0,6.92-6.92,17.17,17.17,0,0,0,1.1-5.75c.12-2.52.14-3.32.14-9.75s0-7.23-.14-9.75a17.17,17.17,0,0,0-1.1-5.75A12.11,12.11,0,0,0,68.39,27a17.57,17.57,0,0,0-5.74-1.1c-2.52-.11-3.33-.14-9.76-.14"/><path class="cls-4" d="M52.89,37.24A12.15,12.15,0,1,0,65,49.39,12.15,12.15,0,0,0,52.89,37.24m0,20a7.89,7.89,0,1,1,7.89-7.89,7.88,7.88,0,0,1-7.89,7.89"/><path class="cls-4" d="M68.36,36.76a2.84,2.84,0,1,1-2.84-2.84,2.84,2.84,0,0,1,2.84,2.84"/></g></g></svg>