<svg xmlns="http://www.w3.org/2000/svg" width="40.873" height="40.873" viewBox="0 0 40.873 40.873">
  <path id="javascript_plain_logo_icon_146454" d="M2,1V41.873H42.873V1ZM23.62,35.828a4.833,4.833,0,0,1-3.089,2.42,7.431,7.431,0,0,1-5.471-.673A6.152,6.152,0,0,1,12.8,34.991l3.113-1.906a1.97,1.97,0,0,1,.218.35A3.287,3.287,0,0,0,17.547,34.9c.661.226,2.113.37,2.673-.794.342-.592.233-2.494.233-4.6,0-3.307.015-6.6.015-9.871H24.3c0,3.6.02,7,0,10.513.008,2.152.195,4.07-.677,5.677ZM39.5,34.747c-1.331,4.552-8.751,4.7-11.716,1.692a6.918,6.918,0,0,1-1.393-1.895c1.576-.906,1.576-.906,3.109-1.794a4.386,4.386,0,0,0,2.988,2.272c1.88.23,3.77-.416,3.346-2.412-.436-1.63-3.849-2.027-6.171-3.77a5.359,5.359,0,0,1-.973-7.63A5.47,5.47,0,0,1,31.6,19.5l1.206-.156c2.315-.047,3.763.565,4.825,1.751a7.642,7.642,0,0,1,.988,1.323c-1.233.786-1.229.779-3,1.922a2.851,2.851,0,0,0-1.665-1.545,1.97,1.97,0,0,0-2.592,1.113,2.113,2.113,0,0,0,.074,1.2c.416.949,1.813,1.362,3.066,1.938,3.607,1.463,4.825,3.031,5.125,4.9A5.615,5.615,0,0,1,39.5,34.747Z" transform="translate(-2 -1)" fill="#f0db4f"/>
</svg>
