<svg xmlns="http://www.w3.org/2000/svg" viewBox="0 0 96.37 89.67"><defs><style>.cls-1,.cls-2{fill:#117bb8;}.cls-1{opacity:0.7;}.cls-2{opacity:0.85;}.cls-3{fill:#fff;}</style></defs><title>Ativo 4</title><g id="Camada_2" data-name="Camada 2"><g id="ICON_SET" data-name="ICON SET"><path class="cls-1" d="M79.27,42.61l8.35-.51c2.3-.14,4.79-.39,6.54-2.88C101.36,29,89.23,16,83,20.49c-3,2.16-8.47,7-9.92,11.86C70.8,40.08,75.51,42.84,79.27,42.61Z"/><path class="cls-1" d="M32.36,0c8.5-.09,16.52,3.94,23.46,8.84S69,19.61,76.27,24c4.77,2.91,10,5.25,13.82,9.37,8.7,9.47,6,25.7-3.11,34.77S53.84,82.31,41,82.65c-9.21.23-18.73-.85-26.77-5.34S-.11,64.37,0,55.17c.08-7,14.16-15.3,16.3-22a25.44,25.44,0,0,0,1.26-11.57c-.57-3.5-4.23-6.82-4-9.88C14,4.31,26.54.06,32.36,0Z"/><path class="cls-2" d="M28,10.67c10.13-5.36,22.2-8.5,33.74-6.48s22.15,10,24.13,20.41c2.61,13.69-9.42,26.93-7.44,40.7.76,5.32,3.6,10.77,1.6,15.83-1.49,3.75-5.45,6.38-9.69,7.55s-8.77,1.08-13.2.85C48.59,89.08,40,88.11,32,85.17s-15.09-8-18.7-15C9.93,63.56,10,56,9,48.81,8.19,42.17.8,33.46,4.39,27.91,8.75,21.18,20.7,14.53,28,10.67Z"/><rect class="cls-3" x="28.53" y="34.28" width="8.93" height="28.85"/><path class="cls-3" d="M33,30.51a5.33,5.33,0,1,0-5.28-5.33A5.31,5.31,0,0,0,33,30.51Z"/><path class="cls-3" d="M51.74,48c0-4.06,1.87-6.47,5.44-6.47C60.46,41.52,62,43.84,62,48V63.13h8.89V44.87c0-7.73-4.38-11.47-10.5-11.47a10,10,0,0,0-8.69,4.77V34.28H43.17V63.13h8.57Z"/></g></g></svg>