<svg xmlns="http://www.w3.org/2000/svg" width="53.365" height="40" viewBox="0 0 53.365 40">
  <path id="sass_lang_logo_icon_168004" d="M45.94,30.984A11,11,0,0,0,41.1,32.109a9.958,9.958,0,0,1-1.084-2.5,6.918,6.918,0,0,1-.094-2.105,16.8,16.8,0,0,1,.636-2.272c-.01-.094-.115-.553-1.188-.563s-2,.208-2.105.49a11.975,11.975,0,0,0-.449,1.6c-.188.98-2.147,4.451-3.263,6.276a6.389,6.389,0,0,1-.74-1.834,6.918,6.918,0,0,1-.094-2.105,16.8,16.8,0,0,1,.636-2.272c-.01-.094-.115-.553-1.188-.563s-2,.208-2.105.49-.219.949-.449,1.6-2.825,6.442-3.5,7.953c-.344.771-.646,1.387-.866,1.8s-.01.032-.031.073l-.292.553v.01c-.146.261-.3.511-.375.511a3.478,3.478,0,0,1,.021-1.658c.386-2.012,1.324-5.15,1.313-5.264,0-.052.178-.6-.6-.886a.95.95,0,0,0-1.095.188c-.063,0-.115.167-.115.167s.845-3.534-1.616-3.534c-1.543,0-3.669,1.679-4.722,3.21l-5.317,2.908-.115-.125c-2.979-3.182-8.494-5.433-8.264-9.707.083-1.553.625-5.65,10.59-10.612,8.162-4.065,14.7-2.95,15.835-.469,1.616,3.544-3.492,10.131-11.977,11.082-3.231.365-4.931-.886-5.358-1.355-.449-.49-.511-.511-.678-.417-.271.146-.1.584,0,.845a5.03,5.03,0,0,0,3.064,2.408c1.553.511,5.347.792,9.935-.98,5.139-1.991,9.152-7.516,7.974-12.133-1.2-4.7-9-6.244-16.366-3.627A37.024,37.024,0,0,0,4.5,16.485C.429,20.279-.217,23.594.053,24.97,1,29.88,7.766,33.08,10.477,35.447l-.375.208c-1.355.667-6.515,3.367-7.807,6.223-1.459,3.231.229,5.556,1.355,5.869a8.329,8.329,0,0,0,8.975-3.638,9,9,0,0,0,.8-8.287l-.032-.063,1.063-.625c.688-.407,1.366-.782,1.96-1.1a12.978,12.978,0,0,0-.7,3.544,7.392,7.392,0,0,0,1.6,5.15,1.763,1.763,0,0,0,1.282.417c1.147,0,1.668-.949,2.241-2.085.709-1.387,1.334-2.992,1.334-2.992s-.782,4.347,1.355,4.347c.782,0,1.563-1.011,1.918-1.533v.01s.021-.032.063-.1c.083-.125.125-.2.125-.2v-.021c.313-.542,1.011-1.783,2.054-3.836,1.345-2.647,2.637-5.962,2.637-5.962a18.983,18.983,0,0,0,.511,2.147,20.484,20.484,0,0,0,1.116,2.5l-.5.688.01.011q-.4.53-.824,1.042a30.286,30.286,0,0,0-2.5,3.138.858.858,0,0,0,.229,1.147,2.087,2.087,0,0,0,1.313.208,5.849,5.849,0,0,0,1.96-.449,6.788,6.788,0,0,0,1.689-.886,3.761,3.761,0,0,0,1.616-3.325,6.686,6.686,0,0,0-.615-2.346l.282-.417a44.014,44.014,0,0,0,2.918-5.056,18.983,18.983,0,0,0,.511,2.147,15.1,15.1,0,0,0,.949,2.147,9.272,9.272,0,0,0-2.846,3.68c-.615,1.772-.136,2.575.771,2.763a2.776,2.776,0,0,0,1.428-.292,6.47,6.47,0,0,0,1.8-.928,4.079,4.079,0,0,0,1.991-3.294,6.317,6.317,0,0,0-.449-1.95,10.159,10.159,0,0,1,5.17-.595c4.639.542,5.556,3.44,5.378,4.649a3.114,3.114,0,0,1-1.47,2.085c-.324.2-.428.271-.4.417.042.219.188.208.469.167a3.608,3.608,0,0,0,2.522-3.221c.125-2.867-2.6-5.994-7.421-5.962ZM10.165,43.045c-1.533,1.679-3.69,2.314-4.607,1.772-.991-.574-.6-3.044,1.282-4.826a24.562,24.562,0,0,1,3.617-2.7l.949-.574a1.083,1.083,0,0,1,.1-.063c.073-.042.157-.094.24-.146a6.648,6.648,0,0,1-1.584,6.536Zm11.207-7.62c-.532,1.3-1.658,4.649-2.335,4.461-.584-.157-.938-2.689-.115-5.192a11.584,11.584,0,0,1,1.824-3.346c.845-.938,1.762-1.251,1.991-.866.271.5-1.032,4.128-1.366,4.941Zm9.246,4.419c-.229.115-.438.2-.532.136-.073-.042.094-.2.094-.2s1.157-1.241,1.616-1.814l.907-1.157v.125c0,1.5-1.438,2.5-2.085,2.908Zm7.129-1.626c-.167-.125-.146-.511.417-1.72a6.451,6.451,0,0,1,1.584-2.043,2.594,2.594,0,0,1,.157.9A2.934,2.934,0,0,1,37.747,38.219Z" transform="translate(0 -8.017)" fill="#cf649a"/>
</svg>
