<svg xmlns="http://www.w3.org/2000/svg" width="35" height="35" viewBox="0 0 35 35">
  <g id="seo-search-svgrepo-com" transform="translate(0 -0.492)">
    <circle id="Elipse_15" data-name="Elipse 15" cx="17.5" cy="17.5" r="17.5" transform="translate(0 0.492)" fill="#21d0c3"/>
    <g id="Grupo_9" data-name="Grupo 9" transform="translate(4.33 9.537)">
      <path id="Caminho_117" data-name="Caminho 117" d="M62.3,139.989a3.106,3.106,0,0,1,.662-2.133,3.023,3.023,0,0,1,3.972,0,3.105,3.105,0,0,1,.662,2.133v.36H65.9v-.474a1.274,1.274,0,0,0-.237-.874.992.992,0,0,0-1.324,0,1.273,1.273,0,0,0-.237.874,2.027,2.027,0,0,0,.261,1.038,4.316,4.316,0,0,0,.654.85q.392.4.842.8a7.976,7.976,0,0,1,.842.874,4.449,4.449,0,0,1,.654,1.079,3.562,3.562,0,0,1,.261,1.422,3.057,3.057,0,0,1-.678,2.133,3.067,3.067,0,0,1-4,0,3.056,3.056,0,0,1-.678-2.133v-.7h1.7v.817a1.184,1.184,0,0,0,.253.866,1.061,1.061,0,0,0,1.357,0,1.184,1.184,0,0,0,.253-.866,2.026,2.026,0,0,0-.262-1.038,4.315,4.315,0,0,0-.654-.85q-.392-.4-.842-.8a8,8,0,0,1-.842-.874,4.451,4.451,0,0,1-.654-1.079,3.562,3.562,0,0,1-.261-1.422Z" transform="translate(-62.254 -137.112)" fill="#fff"/>
      <path id="Caminho_118" data-name="Caminho 118" d="M155.934,143.814H158.4v1.635h-2.468V148.8h3.105v1.634h-4.9V138.993h4.9v1.634h-3.105Z" transform="translate(-147.745 -138.862)" fill="#fff"/>
    </g>
    <path id="Caminho_119" data-name="Caminho 119" d="M219.749,105.429l-.188-1.245,1.971-.539.472,1.169a7.046,7.046,0,0,1,1.332-.007l.46-1.173,1.977.518L225.6,105.4a6.969,6.969,0,0,1,1.157.661l.985-.786,1.452,1.437-.776.993a6.984,6.984,0,0,1,.674,1.15l1.245-.188.539,1.971-1.169.473a7.069,7.069,0,0,1,.007,1.332l1.174.461-.519,1.976-1.247-.175a7.006,7.006,0,0,1-.662,1.157l.786.985-1.437,1.452-.993-.776a7.031,7.031,0,0,1-1.151.674l.188,1.245-1.971.539-.473-1.169a7.074,7.074,0,0,1-1.332.007l-.46,1.173-1.976-.518.175-1.247a7.017,7.017,0,0,1-1.158-.662l-.985.786-1.452-1.438.776-.993a7.022,7.022,0,0,1-.673-1.151l-1.245.188-.539-1.971,1.169-.472a7.043,7.043,0,0,1-.007-1.333l-1.174-.46.519-1.976,1.247.175a7,7,0,0,1,.661-1.157l-.786-.985,1.438-1.452.993.776a7,7,0,0,1,1.151-.674Zm2.958,1.118a5.266,5.266,0,1,1-5.266,5.266A5.266,5.266,0,0,1,222.707,106.547Z" transform="translate(-199.606 -96.425)" fill="#15bdb2"/>
    <g id="Grupo_10" data-name="Grupo 10" transform="translate(16.597 8.901)">
      <path id="Caminho_120" data-name="Caminho 120" d="M326.373,314.134v1.453h-.931v-1.453q.231.005.466.005T326.373,314.134Z" transform="translate(-319.404 -301.186)" fill="#666"/>
      <circle id="Elipse_16" data-name="Elipse 16" cx="6.504" cy="6.504" r="6.504" fill="#666"/>
    </g>
    <circle id="Elipse_17" data-name="Elipse 17" cx="5.9" cy="5.9" r="5.9" transform="translate(17.201 9.505)" fill="#fad24d"/>
    <path id="Caminho_121" data-name="Caminho 121" d="M261.824,145.926a5.261,5.261,0,0,1,4.857,3.247,5.218,5.218,0,0,1,.3.984,5.289,5.289,0,0,1,0,2.051,5.246,5.246,0,0,1-.784,1.892,5.27,5.27,0,0,1-.655.8h0a5.261,5.261,0,0,1-1.707,1.141,5.254,5.254,0,0,1-5.726-1.141h0a5.266,5.266,0,0,1-1.141-1.707,5.257,5.257,0,0,1,3.832-7.165,5.283,5.283,0,0,1,1.026-.1Zm-4.14,7.145h1.309q-.051-.145-.094-.291-.062-.21-.107-.42t-.077-.454q-.024-.185-.034-.371h-1.393q.013.164.037.327c.021.142.049.282.083.418s.079.289.129.429q.066.184.146.361Zm2.064,0h1.723v-1.535h-2.083q.011.162.033.323.028.207.075.414t.118.429Q259.673,152.888,259.748,153.071Zm2.43,0H263.9q.076-.183.135-.368.069-.214.118-.43t.075-.414q.022-.161.033-.323h-2.083v1.535Zm2.478,0h1.309q.081-.177.147-.361a4.456,4.456,0,0,0,.129-.428q.05-.2.083-.417.025-.163.037-.328h-1.393q-.011.185-.034.37-.029.231-.077.454t-.106.419q-.043.146-.094.291Zm.905.707h-1.21c-.026.051-.054.1-.084.158h0c-.036.066-.076.135-.118.206s-.1.155-.147.234-.105.156-.16.231q-.145.2-.306.393t-.34.377q-.1.1-.2.2c.079-.021.157-.044.235-.069a4.54,4.54,0,0,0,1.213-.608,4.6,4.6,0,0,0,.8-.719h0q.1-.11.188-.229.057-.074.114-.155l.015-.022Zm-2.015,0h-1.368v1.588q.084-.071.164-.143.151-.136.288-.274.181-.182.339-.368t.3-.384c.04-.055.08-.114.121-.174s.077-.118.116-.181h0l.038-.063Zm-2.075,0H260.1l.039.063h0c.074.121.153.24.237.356q.141.2.3.384t.339.368q.137.138.288.274.081.072.164.143v-1.588Zm-2.174,0h-1.209l.015.022q.057.081.115.156c.059.077.122.153.188.228h0a4.609,4.609,0,0,0,.8.719,4.533,4.533,0,0,0,1.213.608q.116.038.235.069a7.341,7.341,0,0,1-.541-.577q-.161-.192-.306-.394c-.054-.075-.108-.152-.159-.231s-.1-.158-.148-.235-.08-.137-.118-.207-.058-.108-.084-.158Zm-1.209-5.192h1.235q.037-.072.075-.141h0q.052-.1.11-.193t.137-.22h0c.048-.075.1-.147.146-.217q.144-.2.31-.408t.345-.392q.112-.118.231-.234l0,0q-.127.033-.25.073a4.529,4.529,0,0,0-1.222.61,4.586,4.586,0,0,0-.6.505h0a4.577,4.577,0,0,0-.327.363q-.1.125-.193.257Zm2.042,0h1.341v-1.577q-.084.073-.164.147-.153.141-.291.284-.179.185-.341.381c-.109.131-.21.264-.305.4-.038.053-.075.109-.112.164s-.073.113-.105.166l-.022.036Zm2.048,0h1.341l-.021-.036h0q-.048-.079-.1-.166t-.112-.165q-.142-.2-.306-.4t-.34-.38h0q-.135-.14-.291-.284-.081-.075-.165-.148v1.577Zm2.148,0h1.235l-.015-.022q-.057-.081-.114-.155c-.059-.076-.121-.152-.187-.228s-.133-.147-.2-.216h0a4.556,4.556,0,0,0-1.277-.9,4.5,4.5,0,0,0-.545-.216q-.124-.04-.25-.073c.08.075.158.157.233.236h0q.181.191.345.392t.31.407q.071.1.147.218h0q.07.109.136.219c.065.11.127.221.185.335Zm1.639.708h-1.33q.052.144.1.291.063.208.111.42t.082.453q.026.185.039.371h1.4q-.013-.164-.037-.328h0q-.032-.212-.083-.417c-.036-.145-.079-.288-.129-.428q-.066-.184-.147-.361Zm-2.087,0h-1.7v1.535h2.078q-.013-.159-.037-.319c-.02-.137-.047-.275-.08-.413s-.076-.293-.123-.434Q263.954,149.477,263.878,149.294Zm-2.407,0h-1.7q-.077.183-.139.369-.07.211-.123.433t-.08.414q-.024.16-.037.318h2.078v-1.535Zm-2.456,0h-1.33q-.081.176-.146.361-.075.211-.129.429t-.083.418q-.024.163-.037.327h1.4q.013-.186.039-.372.031-.226.082-.452t.111-.421q.044-.146.1-.29Z" transform="translate(-238.723 -135.776)" fill="#fff"/>
    <path id="Caminho_122" data-name="Caminho 122" d="M317.06,347.788h1.426a.366.366,0,0,0,.361-.37v-7.072a.367.367,0,0,0-.361-.37H317.06a.367.367,0,0,0-.361.37v7.072A.367.367,0,0,0,317.06,347.788Z" transform="translate(-294.672 -316.331)" fill="#666"/>
    <path id="Caminho_123" data-name="Caminho 123" d="M318.846,336.033V335.4a.367.367,0,0,0-.361-.37H317.06a.367.367,0,0,0-.361.37v.635Z" transform="translate(-294.672 -311.726)" fill="#fefefe"/>
    <path id="Caminho_124" data-name="Caminho 124" d="M318.846,336.046v-.635a.367.367,0,0,0-.336-.369v1Zm-1.812-1a.368.368,0,0,0-.336.369v.635h.336Z" transform="translate(-294.672 -311.739)" fill="#ecf0f1"/>
    <path id="Caminho_125" data-name="Caminho 125" d="M374.811,323.04a2.3,2.3,0,0,1,.486-.025l.228-.482,1.151.4-.142.517a2.3,2.3,0,0,1,.362.326l.5-.18.528,1.1-.465.265a2.3,2.3,0,0,1,.025.486l.482.228-.4,1.151-.516-.142a2.3,2.3,0,0,1-.325.362l.18.5-1.1.529-.265-.465a2.281,2.281,0,0,1-.486.025l-.227.482-1.151-.4.141-.516a2.311,2.311,0,0,1-.362-.326l-.5.18-.529-1.1.465-.265a2.306,2.306,0,0,1-.025-.486l-.482-.228.4-1.151.516.142a2.3,2.3,0,0,1,.326-.362l-.18-.5,1.1-.529.265.465Zm.363.558a1.727,1.727,0,1,1-1.727,1.727A1.727,1.727,0,0,1,375.175,323.6Z" transform="translate(-346.482 -300.1)" fill="#15bdb2"/>
  </g>
</svg>
