<svg xmlns="http://www.w3.org/2000/svg" viewBox="0 0 103.08 95.87"><defs><style>.cls-1,.cls-3{fill:#1ec85a;}.cls-1{opacity:0.8;}.cls-2{opacity:0.7;}.cls-4{opacity:0.85;}.cls-5{fill:#fff;fill-rule:evenodd;}</style></defs><title>Ativo 3</title><g id="Camada_2" data-name="Camada 2"><g id="ICON_SET" data-name="ICON SET"><path class="cls-1" d="M.65,27.75c1.54,4.6,6.38,6.78,10.82,7.51,4.76.79,16.4,1.79,19-4.22,1.94-4.41-3.76-11.72-6.9-14.34C16.35,10.63-3.87,14.29.65,27.75Z"/><g class="cls-2"><path class="cls-3" d="M2.66,49c-1.57-2.54-1.27-5.9,0-8.6a27.21,27.21,0,0,1,5.49-7c8.51-8.74,6.54-26.69,20-30.6C38.61-.35,49.66,9.3,60.34,9.19,69,9.1,77.81,9.09,85.92,12s15.47,9.49,16.9,18c1.36,8.06-2.76,16.09-8,22.38S83.18,64,78.48,70.66C74.3,76.6,71.57,83.56,66.72,89s-13,9-19.43,5.54C42.2,91.78,40,85.69,35.8,81.72c-3.92-3.71-9.31-5.35-13.89-8.21-6.43-4-5.9-8.49-8.14-14.65C11.88,53.65,5.44,53.48,2.66,49Z"/></g><g class="cls-4"><path class="cls-3" d="M53.55,7.82c1.49-.5,3-1,4.53-1.42,6.71-2,16.14-8.18,23.37-5.91,9.19,2.88,15.43,13,13.84,22.39-1,5.74-4.4,10.82-5.6,16.52S89.57,50.74,91,56.25s3.26,11,3.69,16.62S94,84.61,90.09,88.82s-10.85,5.82-15.54,2.54c-2.87-2-4.43-5.35-6.83-7.88C61.63,77.07,51.39,77,42.66,78.64S25,83.26,16.35,81.34C10.76,80.11,5.22,76.11,4.59,70.48,4.13,66.41,6.27,62.55,8.33,59,14.07,49.08,17.61,37.94,24,28.37,31.09,17.6,41.52,11.83,53.55,7.82Z"/></g><path class="cls-5" d="M74.1,45.22a23.24,23.24,0,0,0-46.44-.42c0,.34,0,.67,0,1A22.89,22.89,0,0,0,31,57.72L26.78,70.09,39.65,66A23.25,23.25,0,0,0,74.11,45.81C74.11,45.62,74.11,45.42,74.1,45.22Zm-23.22,20A19.48,19.48,0,0,1,40.13,62l-7.51,2.39,2.44-7.2a19.2,19.2,0,0,1-3.72-11.37c0-.63,0-1.26.09-1.88a19.55,19.55,0,0,1,38.92.37c0,.5.06,1,.06,1.51A19.48,19.48,0,0,1,50.88,65.2Z"/><path class="cls-5" d="M61.53,50.47c-.58-.28-3.38-1.66-3.9-1.84s-.9-.28-1.28.28-1.48,1.84-1.81,2.21-.66.42-1.24.14a15.52,15.52,0,0,1-4.58-2.8,16.64,16.64,0,0,1-3.16-3.91c-.33-.57,0-.87.25-1.15s.56-.67.85-1c.08-.1.15-.19.21-.28a5.8,5.8,0,0,0,.36-.67,1,1,0,0,0,0-1c-.14-.28-1.29-3.07-1.77-4.2s-.94-.94-1.28-.94-.71,0-1.09,0a2.09,2.09,0,0,0-1.52.71,6.31,6.31,0,0,0-2,4.72,7.45,7.45,0,0,0,.29,1.93,12.72,12.72,0,0,0,2,3.91c.28.37,3.94,6.27,9.72,8.54s5.8,1.5,6.85,1.41,3.37-1.37,3.84-2.69a4.57,4.57,0,0,0,.33-2.69C62.47,50.89,62.09,50.75,61.53,50.47Z"/></g></g></svg>